<svg xmlns="http://www.w3.org/2000/svg" xmlns:xlink="http://www.w3.org/1999/xlink" width="500" zoomAndPan="magnify" viewBox="0 0 375 374.999991" height="500" preserveAspectRatio="xMidYMid meet" version="1.0"><defs><g/><clipPath id="6607beca62"><path d="M 86.6875 138.125 L 138 138.125 L 138 202 L 86.6875 202 Z M 86.6875 138.125 " clip-rule="nonzero"/></clipPath></defs><path fill="#ffcc00" d="M 127.699219 150.097656 C 137.214844 156.269531 139.921875 168.976562 133.742188 178.480469 C 128.441406 186.625 118.339844 189.773438 109.566406 186.625 L 103.695312 195.652344 L 99.03125 202.824219 C 97.617188 204.996094 94.679688 205.621094 92.503906 204.210938 C 90.324219 202.796875 89.699219 199.867188 91.113281 197.691406 L 95.777344 190.519531 L 101.648438 181.492188 C 95.199219 174.773438 93.96875 164.277344 99.269531 156.132812 C 105.449219 146.628906 118.175781 143.925781 127.699219 150.097656 Z M 92.503906 204.210938 Z M 92.503906 204.210938 " fill-opacity="1" fill-rule="evenodd"/><g clip-path="url(#6607beca62)"><path fill="#000000" d="M 125.164062 146.023438 C 129.296875 148.703125 131.949219 152.796875 132.898438 157.257812 C 133.847656 161.714844 133.089844 166.535156 130.410156 170.660156 L 127.6875 168.890625 C 129.878906 165.519531 130.496094 161.578125 129.71875 157.929688 C 128.945312 154.285156 126.773438 150.933594 123.394531 148.742188 Z M 127.527344 142.390625 C 132.664062 145.71875 135.960938 150.8125 137.140625 156.355469 C 138.320312 161.898438 137.382812 167.890625 134.046875 173.015625 C 130.710938 178.144531 125.613281 181.4375 120.0625 182.613281 C 116.507812 183.371094 112.769531 183.257812 109.195312 182.207031 L 104.171875 189.925781 L 103.214844 191.398438 L 98.550781 198.570312 C 97.597656 200.03125 96.136719 200.972656 94.546875 201.308594 C 92.957031 201.648438 91.238281 201.382812 89.773438 200.433594 C 88.3125 199.484375 87.367188 198.023438 87.03125 196.4375 C 86.691406 194.851562 86.957031 193.136719 87.910156 191.671875 L 92.574219 184.5 L 93.535156 183.027344 L 98.554688 175.308594 C 96.136719 172.472656 94.515625 169.109375 93.757812 165.5625 C 92.578125 160.019531 93.515625 154.027344 96.851562 148.902344 C 100.1875 143.773438 105.289062 140.480469 110.839844 139.304688 C 116.390625 138.125 122.390625 139.0625 127.527344 142.390625 Z M 106.085938 181.03125 C 105.375 180.699219 104.671875 180.324219 103.984375 179.910156 L 103.949219 179.890625 C 103.902344 179.859375 103.859375 179.835938 103.8125 179.804688 C 103.75 179.765625 103.6875 179.730469 103.625 179.6875 L 103.605469 179.675781 C 103.527344 179.625 103.449219 179.578125 103.371094 179.527344 C 103.296875 179.476562 103.21875 179.425781 103.144531 179.375 L 103.121094 179.363281 C 103.0625 179.320312 103 179.28125 102.9375 179.238281 C 102.894531 179.207031 102.851562 179.179688 102.808594 179.148438 L 102.773438 179.125 C 102.113281 178.667969 101.488281 178.179688 100.894531 177.664062 L 96.121094 185 C 96.339844 185.160156 96.554688 185.316406 96.761719 185.464844 C 97.316406 185.855469 97.953125 186.285156 98.671875 186.75 C 99.394531 187.21875 100.046875 187.625 100.628906 187.96875 C 100.851562 188.101562 101.078125 188.230469 101.3125 188.367188 Z M 133.964844 157.03125 C 132.957031 152.300781 130.140625 147.953125 125.757812 145.109375 C 121.375 142.269531 116.253906 141.46875 111.515625 142.472656 C 106.777344 143.480469 102.421875 146.289062 99.574219 150.667969 C 96.730469 155.042969 95.929688 160.15625 96.9375 164.886719 C 97.941406 169.617188 100.757812 173.964844 105.140625 176.808594 C 109.523438 179.648438 114.648438 180.449219 119.386719 179.445312 C 124.125 178.4375 128.476562 175.628906 131.324219 171.25 C 134.171875 166.875 134.972656 161.761719 133.964844 157.03125 Z M 95.824219 196.804688 L 99.546875 191.082031 C 99.359375 190.972656 99.167969 190.863281 98.976562 190.746094 C 98.210938 190.296875 97.519531 189.871094 96.90625 189.46875 C 96.289062 189.070312 95.617188 188.613281 94.894531 188.101562 C 94.710938 187.972656 94.53125 187.84375 94.355469 187.714844 L 90.632812 193.4375 C 90.171875 194.148438 90.042969 194.988281 90.207031 195.761719 C 90.371094 196.539062 90.832031 197.25 91.542969 197.714844 C 92.257812 198.175781 93.09375 198.304688 93.871094 198.140625 C 94.648438 197.972656 95.363281 197.515625 95.824219 196.804688 Z M 95.824219 196.804688 " fill-opacity="1" fill-rule="nonzero"/></g><g fill="#000000" fill-opacity="1"><g transform="translate(12.604897, 186.728823)"><g><path d="M 39.328125 0 L 37.265625 -25.921875 L 37 -25.921875 L 28.03125 -0.265625 L 22.09375 -0.265625 L 13.140625 -25.921875 L 12.875 -25.921875 L 10.8125 0 L 0.84375 0 L 4.765625 -43.71875 L 15.375 -43.71875 L 25.0625 -18.5 L 34.765625 -43.71875 L 45.375 -43.71875 L 49.296875 0 Z M 39.328125 0 "/></g></g></g><g fill="#000000" fill-opacity="1"><g transform="translate(58.927651, 186.728823)"><g><path d="M 4.078125 -42.34375 C 5.171875 -43.4375 6.476562 -43.984375 8 -43.984375 C 9.519531 -43.984375 10.828125 -43.4375 11.921875 -42.34375 C 13.015625 -41.25 13.5625 -39.941406 13.5625 -38.421875 C 13.5625 -36.898438 13.015625 -35.59375 11.921875 -34.5 C 10.828125 -33.40625 9.519531 -32.859375 8 -32.859375 C 6.476562 -32.859375 5.171875 -33.40625 4.078125 -34.5 C 2.984375 -35.59375 2.4375 -36.898438 2.4375 -38.421875 C 2.4375 -39.941406 2.984375 -41.25 4.078125 -42.34375 Z M 3.1875 -27.1875 L 3.1875 0 L 12.5625 0 L 12.5625 -27.1875 Z M 3.1875 -27.1875 "/></g></g></g><g fill="#000000" fill-opacity="1"><g transform="translate(71.130628, 186.728823)"><g/></g></g><g fill="#000000" fill-opacity="1"><g transform="translate(81.783686, 186.728823)"><g/></g></g><g fill="#000000" fill-opacity="1"><g transform="translate(92.436745, 186.728823)"><g/></g></g><g fill="#000000" fill-opacity="1"><g transform="translate(103.089804, 186.728823)"><g/></g></g><g fill="#000000" fill-opacity="1"><g transform="translate(113.742862, 186.728823)"><g/></g></g><g fill="#000000" fill-opacity="1"><g transform="translate(124.39592, 186.728823)"><g/></g></g><g fill="#000000" fill-opacity="1"><g transform="translate(135.04898, 186.728823)"><g/></g></g><g fill="#000000" fill-opacity="1"><g transform="translate(145.705908, 186.728823)"><g><path d="M 26.453125 -9.015625 C 27.960938 -9.015625 29.429688 -9.242188 30.859375 -9.703125 C 32.296875 -10.160156 33.351562 -10.601562 34.03125 -11.03125 L 35.03125 -11.71875 L 39.265625 -3.234375 C 39.128906 -3.128906 38.9375 -2.988281 38.6875 -2.8125 C 38.4375 -2.632812 37.859375 -2.304688 36.953125 -1.828125 C 36.054688 -1.347656 35.097656 -0.929688 34.078125 -0.578125 C 33.054688 -0.222656 31.710938 0.09375 30.046875 0.375 C 28.390625 0.65625 26.675781 0.796875 24.90625 0.796875 C 20.84375 0.796875 16.988281 -0.195312 13.34375 -2.1875 C 9.707031 -4.1875 6.773438 -6.9375 4.546875 -10.4375 C 2.328125 -13.9375 1.21875 -17.71875 1.21875 -21.78125 C 1.21875 -24.851562 1.867188 -27.800781 3.171875 -30.625 C 4.484375 -33.457031 6.222656 -35.878906 8.390625 -37.890625 C 10.566406 -39.910156 13.101562 -41.519531 16 -42.71875 C 18.90625 -43.914062 21.875 -44.515625 24.90625 -44.515625 C 27.738281 -44.515625 30.347656 -44.175781 32.734375 -43.5 C 35.117188 -42.832031 36.800781 -42.164062 37.78125 -41.5 L 39.265625 -40.484375 L 35.03125 -32.015625 C 34.78125 -32.222656 34.40625 -32.476562 33.90625 -32.78125 C 33.414062 -33.082031 32.425781 -33.476562 30.9375 -33.96875 C 29.457031 -34.46875 27.960938 -34.71875 26.453125 -34.71875 C 24.046875 -34.71875 21.890625 -34.328125 19.984375 -33.546875 C 18.078125 -32.773438 16.566406 -31.75 15.453125 -30.46875 C 14.335938 -29.195312 13.488281 -27.828125 12.90625 -26.359375 C 12.320312 -24.898438 12.03125 -23.410156 12.03125 -21.890625 C 12.03125 -18.566406 13.273438 -15.585938 15.765625 -12.953125 C 18.253906 -10.328125 21.816406 -9.015625 26.453125 -9.015625 Z M 26.453125 -9.015625 "/></g></g></g><g fill="#000000" fill-opacity="1"><g transform="translate(181.799468, 186.728823)"><g><path d="M 3.1875 0 L 3.1875 -45.578125 L 12.5625 -45.578125 L 12.5625 -24.328125 L 12.671875 -24.328125 C 15.109375 -26.765625 17.703125 -27.984375 20.453125 -27.984375 C 21.796875 -27.984375 23.128906 -27.804688 24.453125 -27.453125 C 25.785156 -27.097656 27.0625 -26.550781 28.28125 -25.8125 C 29.5 -25.070312 30.488281 -24.019531 31.25 -22.65625 C 32.007812 -21.289062 32.390625 -19.707031 32.390625 -17.90625 L 32.390625 0 L 23 0 L 23 -15.375 C 23 -16.78125 22.546875 -18.015625 21.640625 -19.078125 C 20.742188 -20.140625 19.570312 -20.671875 18.125 -20.671875 C 16.707031 -20.671875 15.425781 -20.125 14.28125 -19.03125 C 13.132812 -17.9375 12.5625 -16.71875 12.5625 -15.375 L 12.5625 0 Z M 3.1875 0 "/></g></g></g><g fill="#000000" fill-opacity="1"><g transform="translate(213.016925, 186.728823)"><g><path d="M 5.03125 -3.359375 C 2.488281 -6.140625 1.21875 -9.539062 1.21875 -13.5625 C 1.21875 -17.59375 2.488281 -21.003906 5.03125 -23.796875 C 7.570312 -26.585938 10.804688 -27.984375 14.734375 -27.984375 C 18.335938 -27.984375 21.304688 -26.851562 23.640625 -24.59375 L 23.640625 -27.1875 L 33.015625 -27.1875 L 33.015625 0 L 23.75 0 L 23.75 -3.078125 L 23.640625 -3.078125 C 21.304688 -0.492188 18.335938 0.796875 14.734375 0.796875 C 10.804688 0.796875 7.570312 -0.585938 5.03125 -3.359375 Z M 13.015625 -18.171875 C 11.796875 -16.972656 11.1875 -15.4375 11.1875 -13.5625 C 11.1875 -11.695312 11.769531 -10.171875 12.9375 -8.984375 C 14.101562 -7.796875 15.640625 -7.203125 17.546875 -7.203125 C 19.378906 -7.203125 20.882812 -7.800781 22.0625 -9 C 23.25 -10.207031 23.84375 -11.726562 23.84375 -13.5625 C 23.84375 -15.4375 23.234375 -16.972656 22.015625 -18.171875 C 20.796875 -19.378906 19.304688 -19.984375 17.546875 -19.984375 C 15.742188 -19.984375 14.234375 -19.378906 13.015625 -18.171875 Z M 13.015625 -18.171875 "/></g></g></g><g fill="#000000" fill-opacity="1"><g transform="translate(245.400409, 186.728823)"><g><path d="M 3.1875 0 L 3.1875 -27.1875 L 12.5625 -27.1875 L 12.5625 -24.328125 L 12.671875 -24.328125 C 15.109375 -26.765625 17.703125 -27.984375 20.453125 -27.984375 C 22.429688 -27.984375 24.285156 -27.578125 26.015625 -26.765625 C 27.753906 -25.953125 29.0625 -24.695312 29.9375 -23 C 32.695312 -26.320312 35.703125 -27.984375 38.953125 -27.984375 C 41.847656 -27.984375 44.335938 -27.171875 46.421875 -25.546875 C 48.515625 -23.921875 49.5625 -21.375 49.5625 -17.90625 L 49.5625 0 L 40.171875 0 L 40.171875 -15.375 C 40.171875 -16.820312 39.769531 -18.03125 38.96875 -19 C 38.175781 -19.96875 36.988281 -20.453125 35.40625 -20.453125 C 34.03125 -20.453125 32.976562 -20.035156 32.25 -19.203125 C 31.519531 -18.378906 31.125 -17.382812 31.0625 -16.21875 L 31.0625 0 L 21.671875 0 L 21.671875 -15.375 C 21.671875 -16.820312 21.273438 -18.03125 20.484375 -19 C 19.691406 -19.96875 18.5 -20.453125 16.90625 -20.453125 C 15.457031 -20.453125 14.367188 -20 13.640625 -19.09375 C 12.921875 -18.195312 12.5625 -17.132812 12.5625 -15.90625 L 12.5625 0 Z M 3.1875 0 "/></g></g></g><g fill="#000000" fill-opacity="1"><g transform="translate(293.790211, 186.728823)"><g><path d="M 31.15625 -23.796875 C 33.707031 -21.003906 34.984375 -17.59375 34.984375 -13.5625 C 34.984375 -9.539062 33.707031 -6.140625 31.15625 -3.359375 C 28.613281 -0.585938 25.382812 0.796875 21.46875 0.796875 C 17.863281 0.796875 14.894531 -0.492188 12.5625 -3.078125 L 12.453125 -3.078125 L 12.453125 0 L 3.1875 0 L 3.1875 -45.578125 L 12.5625 -45.578125 L 12.5625 -24.59375 C 14.894531 -26.851562 17.863281 -27.984375 21.46875 -27.984375 C 25.382812 -27.984375 28.613281 -26.585938 31.15625 -23.796875 Z M 23.265625 -8.984375 C 24.429688 -10.171875 25.015625 -11.695312 25.015625 -13.5625 C 25.015625 -15.4375 24.40625 -16.972656 23.1875 -18.171875 C 21.96875 -19.378906 20.457031 -19.984375 18.65625 -19.984375 C 16.882812 -19.984375 15.390625 -19.378906 14.171875 -18.171875 C 12.953125 -16.972656 12.34375 -15.4375 12.34375 -13.5625 C 12.34375 -11.726562 12.9375 -10.207031 14.125 -9 C 15.3125 -7.800781 16.820312 -7.203125 18.65625 -7.203125 C 20.5625 -7.203125 22.097656 -7.796875 23.265625 -8.984375 Z M 23.265625 -8.984375 "/></g></g></g><g fill="#000000" fill-opacity="1"><g transform="translate(326.173695, 186.728823)"><g><path d="M 5.03125 -3.359375 C 2.488281 -6.140625 1.21875 -9.539062 1.21875 -13.5625 C 1.21875 -17.59375 2.488281 -21.003906 5.03125 -23.796875 C 7.570312 -26.585938 10.804688 -27.984375 14.734375 -27.984375 C 18.335938 -27.984375 21.304688 -26.851562 23.640625 -24.59375 L 23.640625 -27.1875 L 33.015625 -27.1875 L 33.015625 0 L 23.75 0 L 23.75 -3.078125 L 23.640625 -3.078125 C 21.304688 -0.492188 18.335938 0.796875 14.734375 0.796875 C 10.804688 0.796875 7.570312 -0.585938 5.03125 -3.359375 Z M 13.015625 -18.171875 C 11.796875 -16.972656 11.1875 -15.4375 11.1875 -13.5625 C 11.1875 -11.695312 11.769531 -10.171875 12.9375 -8.984375 C 14.101562 -7.796875 15.640625 -7.203125 17.546875 -7.203125 C 19.378906 -7.203125 20.882812 -7.800781 22.0625 -9 C 23.25 -10.207031 23.84375 -11.726562 23.84375 -13.5625 C 23.84375 -15.4375 23.234375 -16.972656 22.015625 -18.171875 C 20.796875 -19.378906 19.304688 -19.984375 17.546875 -19.984375 C 15.742188 -19.984375 14.234375 -19.378906 13.015625 -18.171875 Z M 13.015625 -18.171875 "/></g></g></g><g fill="#000000" fill-opacity="1"><g transform="translate(89.503066, 232.014462)"><g><path d="M 6.09375 0 L 1.078125 0 L 1.078125 -12.140625 L 5.890625 -12.140625 C 7.378906 -12.140625 8.453125 -11.8125 9.109375 -11.15625 C 9.609375 -10.65625 9.859375 -9.972656 9.859375 -9.109375 C 9.859375 -8.421875 9.703125 -7.832031 9.390625 -7.34375 C 9.078125 -6.851562 8.632812 -6.535156 8.0625 -6.390625 C 8.84375 -6.253906 9.441406 -5.941406 9.859375 -5.453125 C 10.273438 -4.960938 10.484375 -4.320312 10.484375 -3.53125 C 10.484375 -2.945312 10.378906 -2.4375 10.171875 -2 C 9.960938 -1.570312 9.703125 -1.222656 9.390625 -0.953125 C 9.046875 -0.671875 8.65625 -0.457031 8.21875 -0.3125 C 7.789062 -0.175781 7.390625 -0.0859375 7.015625 -0.046875 C 6.640625 -0.015625 6.332031 0 6.09375 0 Z M 3.375 -10.09375 L 3.375 -7.09375 L 5.75 -7.09375 C 6.332031 -7.09375 6.773438 -7.222656 7.078125 -7.484375 C 7.390625 -7.742188 7.546875 -8.117188 7.546875 -8.609375 C 7.546875 -9.085938 7.398438 -9.441406 7.109375 -9.671875 C 6.785156 -9.953125 6.207031 -10.09375 5.375 -10.09375 Z M 3.375 -5.234375 L 3.375 -2.046875 L 5.8125 -2.046875 C 6.113281 -2.046875 6.445312 -2.070312 6.8125 -2.125 C 7.175781 -2.1875 7.476562 -2.320312 7.71875 -2.53125 C 7.863281 -2.644531 7.972656 -2.796875 8.046875 -2.984375 C 8.128906 -3.179688 8.171875 -3.421875 8.171875 -3.703125 C 8.171875 -4.179688 8.0625 -4.523438 7.84375 -4.734375 C 7.625 -4.953125 7.351562 -5.085938 7.03125 -5.140625 C 6.707031 -5.203125 6.382812 -5.234375 6.0625 -5.234375 Z M 3.375 -5.234375 "/></g></g></g><g fill="#000000" fill-opacity="1"><g transform="translate(105.911008, 232.014462)"><g><path d="M 5.859375 0.21875 C 4.703125 0.21875 3.757812 0.0234375 3.03125 -0.359375 C 2.3125 -0.742188 1.785156 -1.285156 1.453125 -1.984375 C 1.117188 -2.691406 0.953125 -3.5 0.953125 -4.40625 L 0.953125 -12.140625 L 3.265625 -12.140625 L 3.265625 -4.40625 C 3.265625 -3.90625 3.34375 -3.457031 3.5 -3.0625 C 3.65625 -2.675781 3.925781 -2.375 4.3125 -2.15625 C 4.695312 -1.9375 5.210938 -1.828125 5.859375 -1.828125 C 6.515625 -1.828125 7.03125 -1.9375 7.40625 -2.15625 C 7.789062 -2.375 8.0625 -2.675781 8.21875 -3.0625 C 8.375 -3.457031 8.453125 -3.90625 8.453125 -4.40625 L 8.453125 -12.140625 L 10.765625 -12.140625 L 10.765625 -4.40625 C 10.765625 -3.5 10.597656 -2.691406 10.265625 -1.984375 C 9.929688 -1.285156 9.398438 -0.742188 8.671875 -0.359375 C 7.953125 0.0234375 7.015625 0.21875 5.859375 0.21875 Z M 5.859375 0.21875 "/></g></g></g><g fill="#000000" fill-opacity="1"><g transform="translate(122.939609, 232.014462)"><g><path d="M 5.90625 0.21875 C 5.320312 0.21875 4.726562 0.144531 4.125 0 C 3.53125 -0.132812 2.976562 -0.359375 2.46875 -0.671875 C 1.957031 -0.992188 1.53125 -1.421875 1.1875 -1.953125 C 0.84375 -2.492188 0.632812 -3.160156 0.5625 -3.953125 L 2.921875 -3.953125 C 3.066406 -3.378906 3.289062 -2.929688 3.59375 -2.609375 C 3.90625 -2.285156 4.265625 -2.054688 4.671875 -1.921875 C 5.078125 -1.796875 5.492188 -1.734375 5.921875 -1.734375 C 6.546875 -1.734375 7.070312 -1.863281 7.5 -2.125 C 7.925781 -2.394531 8.140625 -2.820312 8.140625 -3.40625 C 8.140625 -3.832031 8 -4.160156 7.71875 -4.390625 C 7.445312 -4.628906 7.085938 -4.8125 6.640625 -4.9375 C 6.203125 -5.070312 5.722656 -5.191406 5.203125 -5.296875 C 4.703125 -5.421875 4.203125 -5.550781 3.703125 -5.6875 C 3.210938 -5.820312 2.753906 -6.007812 2.328125 -6.25 C 1.910156 -6.5 1.578125 -6.828125 1.328125 -7.234375 C 1.078125 -7.640625 0.953125 -8.164062 0.953125 -8.8125 C 0.953125 -9.59375 1.140625 -10.242188 1.515625 -10.765625 C 1.890625 -11.296875 2.398438 -11.695312 3.046875 -11.96875 C 3.703125 -12.238281 4.4375 -12.375 5.25 -12.375 C 6.039062 -12.375 6.78125 -12.234375 7.46875 -11.953125 C 8.15625 -11.679688 8.738281 -11.265625 9.21875 -10.703125 C 9.695312 -10.140625 10 -9.414062 10.125 -8.53125 L 7.78125 -8.53125 C 7.632812 -9.175781 7.320312 -9.648438 6.84375 -9.953125 C 6.375 -10.253906 5.828125 -10.40625 5.203125 -10.40625 C 4.628906 -10.40625 4.15625 -10.285156 3.78125 -10.046875 C 3.414062 -9.816406 3.234375 -9.46875 3.234375 -9 C 3.234375 -8.625 3.363281 -8.328125 3.625 -8.109375 C 3.882812 -7.898438 4.222656 -7.734375 4.640625 -7.609375 C 5.066406 -7.492188 5.523438 -7.378906 6.015625 -7.265625 C 6.523438 -7.148438 7.035156 -7.015625 7.546875 -6.859375 C 8.066406 -6.710938 8.546875 -6.507812 8.984375 -6.25 C 9.429688 -5.988281 9.785156 -5.640625 10.046875 -5.203125 C 10.304688 -4.765625 10.4375 -4.203125 10.4375 -3.515625 C 10.4375 -2.367188 10.039062 -1.457031 9.25 -0.78125 C 8.457031 -0.113281 7.34375 0.21875 5.90625 0.21875 Z M 5.90625 0.21875 "/></g></g></g><g fill="#000000" fill-opacity="1"><g transform="translate(139.315726, 232.014462)"><g><path d="M 6.515625 0.21875 C 5.503906 0.21875 4.628906 0.0507812 3.890625 -0.28125 C 3.148438 -0.625 2.539062 -1.085938 2.0625 -1.671875 C 1.582031 -2.253906 1.222656 -2.925781 0.984375 -3.6875 C 0.742188 -4.445312 0.625 -5.242188 0.625 -6.078125 C 0.625 -6.921875 0.742188 -7.71875 0.984375 -8.46875 C 1.222656 -9.226562 1.582031 -9.898438 2.0625 -10.484375 C 2.539062 -11.078125 3.148438 -11.539062 3.890625 -11.875 C 4.628906 -12.207031 5.503906 -12.375 6.515625 -12.375 C 7.515625 -12.375 8.378906 -12.203125 9.109375 -11.859375 C 9.835938 -11.523438 10.421875 -11.050781 10.859375 -10.4375 C 11.296875 -9.832031 11.566406 -9.132812 11.671875 -8.34375 L 9.171875 -8.34375 C 9.066406 -8.988281 8.765625 -9.476562 8.265625 -9.8125 C 7.773438 -10.144531 7.171875 -10.3125 6.453125 -10.3125 C 5.703125 -10.3125 5.070312 -10.132812 4.5625 -9.78125 C 4.0625 -9.425781 3.675781 -8.929688 3.40625 -8.296875 C 3.144531 -7.660156 3.015625 -6.921875 3.015625 -6.078125 C 3.015625 -5.242188 3.144531 -4.503906 3.40625 -3.859375 C 3.675781 -3.210938 4.0625 -2.710938 4.5625 -2.359375 C 5.070312 -2.003906 5.703125 -1.828125 6.453125 -1.828125 C 7.171875 -1.828125 7.773438 -2 8.265625 -2.34375 C 8.753906 -2.695312 9.054688 -3.234375 9.171875 -3.953125 L 11.671875 -3.953125 C 11.566406 -3.109375 11.296875 -2.375 10.859375 -1.75 C 10.421875 -1.125 9.835938 -0.640625 9.109375 -0.296875 C 8.378906 0.046875 7.515625 0.21875 6.515625 0.21875 Z M 6.515625 0.21875 "/></g></g></g><g fill="#000000" fill-opacity="1"><g transform="translate(156.821741, 232.014462)"><g><path d="M 2.515625 0 L 0.109375 0 L 4.390625 -12.140625 L 6.90625 -12.140625 L 11.1875 0 L 8.78125 0 L 7.953125 -2.5 L 3.328125 -2.5 Z M 5.65625 -9.65625 L 3.984375 -4.5 L 7.328125 -4.5 Z M 5.65625 -9.65625 "/></g></g></g><g fill="#000000" fill-opacity="1"><g transform="translate(173.420662, 232.014462)"><g><path d="M 3.375 0 L 1.078125 0 L 1.078125 -12.140625 L 3.65625 -12.140625 L 8.640625 -3.453125 L 8.640625 -12.140625 L 10.9375 -12.140625 L 10.9375 0 L 8.34375 0 L 3.375 -8.703125 Z M 3.375 0 "/></g></g></g><g fill="#000000" fill-opacity="1"><g transform="translate(190.735709, 232.014462)"><g><path d="M 4.625 0 L 1.078125 0 L 1.078125 -12.140625 L 4.625 -12.140625 C 6.675781 -12.140625 8.242188 -11.613281 9.328125 -10.5625 C 10.421875 -9.519531 10.96875 -8.019531 10.96875 -6.0625 C 10.96875 -4.125 10.421875 -2.628906 9.328125 -1.578125 C 8.234375 -0.523438 6.664062 0 4.625 0 Z M 3.375 -10.09375 L 3.375 -2.046875 L 4.578125 -2.046875 C 5.390625 -2.046875 6.101562 -2.171875 6.71875 -2.421875 C 7.332031 -2.671875 7.8125 -3.085938 8.15625 -3.671875 C 8.5 -4.265625 8.671875 -5.0625 8.671875 -6.0625 C 8.671875 -7.007812 8.5 -7.773438 8.15625 -8.359375 C 7.820312 -8.953125 7.347656 -9.390625 6.734375 -9.671875 C 6.128906 -9.953125 5.414062 -10.09375 4.59375 -10.09375 Z M 3.375 -10.09375 "/></g></g></g><g fill="#000000" fill-opacity="1"><g transform="translate(207.621076, 232.014462)"><g><path d="M 6.515625 0.21875 C 5.515625 0.21875 4.640625 0.0507812 3.890625 -0.28125 C 3.148438 -0.625 2.539062 -1.085938 2.0625 -1.671875 C 1.582031 -2.253906 1.222656 -2.925781 0.984375 -3.6875 C 0.742188 -4.445312 0.625 -5.242188 0.625 -6.078125 C 0.625 -6.921875 0.742188 -7.71875 0.984375 -8.46875 C 1.222656 -9.226562 1.582031 -9.898438 2.0625 -10.484375 C 2.539062 -11.078125 3.148438 -11.539062 3.890625 -11.875 C 4.640625 -12.207031 5.515625 -12.375 6.515625 -12.375 C 7.523438 -12.375 8.398438 -12.207031 9.140625 -11.875 C 9.878906 -11.539062 10.488281 -11.078125 10.96875 -10.484375 C 11.457031 -9.898438 11.820312 -9.226562 12.0625 -8.46875 C 12.300781 -7.71875 12.421875 -6.921875 12.421875 -6.078125 C 12.421875 -5.242188 12.300781 -4.445312 12.0625 -3.6875 C 11.820312 -2.925781 11.457031 -2.253906 10.96875 -1.671875 C 10.488281 -1.085938 9.878906 -0.625 9.140625 -0.28125 C 8.398438 0.0507812 7.523438 0.21875 6.515625 0.21875 Z M 6.515625 -1.828125 C 7.265625 -1.828125 7.898438 -2.003906 8.421875 -2.359375 C 8.941406 -2.710938 9.335938 -3.210938 9.609375 -3.859375 C 9.890625 -4.503906 10.03125 -5.242188 10.03125 -6.078125 C 10.03125 -6.921875 9.890625 -7.65625 9.609375 -8.28125 C 9.335938 -8.914062 8.941406 -9.410156 8.421875 -9.765625 C 7.898438 -10.117188 7.265625 -10.296875 6.515625 -10.296875 C 5.773438 -10.296875 5.144531 -10.117188 4.625 -9.765625 C 4.101562 -9.410156 3.703125 -8.914062 3.421875 -8.28125 C 3.148438 -7.65625 3.015625 -6.921875 3.015625 -6.078125 C 3.015625 -5.242188 3.148438 -4.503906 3.421875 -3.859375 C 3.703125 -3.210938 4.101562 -2.710938 4.625 -2.359375 C 5.144531 -2.003906 5.773438 -1.828125 6.515625 -1.828125 Z M 6.515625 -1.828125 "/></g></g></g><g fill="#000000" fill-opacity="1"><g transform="translate(225.970544, 232.014462)"><g><path d="M 1.96875 0.171875 C 1.613281 0.171875 1.304688 0.046875 1.046875 -0.203125 C 0.796875 -0.453125 0.671875 -0.753906 0.671875 -1.109375 C 0.671875 -1.453125 0.800781 -1.75 1.0625 -2 C 1.320312 -2.25 1.625 -2.375 1.96875 -2.375 C 2.3125 -2.375 2.601562 -2.25 2.84375 -2 C 3.09375 -1.75 3.21875 -1.453125 3.21875 -1.109375 C 3.21875 -0.753906 3.09375 -0.453125 2.84375 -0.203125 C 2.601562 0.046875 2.3125 0.171875 1.96875 0.171875 Z M 1.96875 0.171875 "/></g></g></g><g fill="#000000" fill-opacity="1"><g transform="translate(235.1535, 232.014462)"><g><path d="M 1.96875 0.171875 C 1.613281 0.171875 1.304688 0.046875 1.046875 -0.203125 C 0.796875 -0.453125 0.671875 -0.753906 0.671875 -1.109375 C 0.671875 -1.453125 0.800781 -1.75 1.0625 -2 C 1.320312 -2.25 1.625 -2.375 1.96875 -2.375 C 2.3125 -2.375 2.601562 -2.25 2.84375 -2 C 3.09375 -1.75 3.21875 -1.453125 3.21875 -1.109375 C 3.21875 -0.753906 3.09375 -0.453125 2.84375 -0.203125 C 2.601562 0.046875 2.3125 0.171875 1.96875 0.171875 Z M 1.96875 0.171875 "/></g></g></g><g fill="#000000" fill-opacity="1"><g transform="translate(244.336456, 232.014462)"><g><path d="M 1.96875 0.171875 C 1.613281 0.171875 1.304688 0.046875 1.046875 -0.203125 C 0.796875 -0.453125 0.671875 -0.753906 0.671875 -1.109375 C 0.671875 -1.453125 0.800781 -1.75 1.0625 -2 C 1.320312 -2.25 1.625 -2.375 1.96875 -2.375 C 2.3125 -2.375 2.601562 -2.25 2.84375 -2 C 3.09375 -1.75 3.21875 -1.453125 3.21875 -1.109375 C 3.21875 -0.753906 3.09375 -0.453125 2.84375 -0.203125 C 2.601562 0.046875 2.3125 0.171875 1.96875 0.171875 Z M 1.96875 0.171875 "/></g></g></g></svg>